<svg width="221" height="26" viewBox="0 0 221 26" fill="none" xmlns="http://www.w3.org/2000/svg">
<line x1="1.33904" y1="2.27299e-08" x2="1.33904" y2="17" stroke="black" stroke-width="1.48851"/>
<line x1="11.7586" y1="2.27299e-08" x2="11.7586" y2="17" stroke="black" stroke-width="1.48851"/>
<line x1="22.1782" y1="2.27299e-08" x2="22.1782" y2="17" stroke="black" stroke-width="1.48851"/>
<line x1="32.5976" y1="2.27299e-08" x2="32.5976" y2="17" stroke="black" stroke-width="1.48851"/>
<line x1="43.0172" y1="2.27299e-08" x2="43.0172" y2="26" stroke="black" stroke-width="1.48851"/>
<line x1="53.4368" y1="2.27299e-08" x2="53.4368" y2="17" stroke="black" stroke-width="1.48851"/>
<line x1="63.8563" y1="2.27299e-08" x2="63.8563" y2="17" stroke="black" stroke-width="1.48851"/>
<line x1="74.2759" y1="2.27299e-08" x2="74.2759" y2="17" stroke="black" stroke-width="1.48851"/>
<line x1="84.6954" y1="2.27299e-08" x2="84.6954" y2="17" stroke="black" stroke-width="1.48851"/>
<line x1="95.1149" y1="2.27299e-08" x2="95.1149" y2="17" stroke="black" stroke-width="1.48851"/>
<line x1="105.534" y1="2.27299e-08" x2="105.534" y2="26" stroke="black" stroke-width="1.48851"/>
<line x1="115.954" y1="2.27299e-08" x2="115.954" y2="17" stroke="black" stroke-width="1.48851"/>
<line x1="126.374" y1="2.27299e-08" x2="126.374" y2="17" stroke="black" stroke-width="1.48851"/>
<line x1="136.793" y1="2.27299e-08" x2="136.793" y2="17" stroke="black" stroke-width="1.48851"/>
<line x1="147.213" y1="2.27299e-08" x2="147.213" y2="17" stroke="black" stroke-width="1.48851"/>
<line x1="157.632" y1="2.27299e-08" x2="157.632" y2="17" stroke="black" stroke-width="1.48851"/>
<line x1="168.052" y1="2.27299e-08" x2="168.052" y2="26" stroke="black" stroke-width="1.48851"/>
<line x1="178.471" y1="2.27299e-08" x2="178.471" y2="17" stroke="black" stroke-width="1.48851"/>
<line x1="188.891" y1="2.27299e-08" x2="188.891" y2="17" stroke="black" stroke-width="1.48851"/>
<line x1="199.31" y1="2.27299e-08" x2="199.31" y2="17" stroke="black" stroke-width="1.48851"/>
<line x1="209.73" y1="2.27299e-08" x2="209.73" y2="17" stroke="black" stroke-width="1.48851"/>
<line x1="220.149" y1="2.27299e-08" x2="220.149" y2="17" stroke="black" stroke-width="1.48851"/>
</svg>
